# xmcd
#
# Track frame offsets:
#	150
#	17167
#	35128
#	55707
#	70045
#	88431
#	107583
#	122189
#	141685
#	155981
#	168859
#	185905
#	200949
#	217492
#	235520
#	250173
#	263038
#	276927
#	293649
#	311388
#
# Disc length: 4395 seconds
#
# Revision: 1
# Processed by: cddbd v1.5.2PL0 Copyright (c) Steve Scherf et al.
# Submitted via: audiograbber 1.83.01
#
DISCID=42112914
DTITLE=Various Artist - ERG NCT 152
DYEAR=2007
DGENRE=Country
TTITLE0=Kenny Chesney - Beer In Mexico
TTITLE1=TimMcGraw - Last Dollar (Fly Away)
TTITLE2=Carrie Underwood - Wasted
TTITLE3=Eric Church - Guys Like Me
TTITLE4=Alan Jackson - A Woman's Love
TTITLE5=Meramie - Cry Like Memphis
TTITLE6=Jeff Carson - When You Said You Loved Me
TTITLE7=Hank Williams Jr. - A Country Boy Can Survive [25 Anniversary Remix]
TTITLE8=Sammy Kershaw - Baby's Got Her Blue Jeans On
TTITLE9=Prairie Oyster - Too Bad For Me
TTITLE10=Cross Canadian Ragweed - Late Last Night [Live Version]
TTITLE11=John Mellencamp - Our Country
TTITLE12=Blake Shelton - Don't Make Me
TTITLE13=Rushlow Harris - Bagpipes Cryin'
TTITLE14=Ty Herdon - Right About Now
TTITLE15=Zachary Hunter - Something Big (The George Strait Song)
TTITLE16=Adam Gregory - Don't Send The Invitation (If You Don't Wanna Party)
TTITLE17=Carolina Rain - Isn't She
TTITLE18=Emerson Drive - Moments
TTITLE19=Alison Krauss and John Waite - Missing You 2007
EXTD=
EXTT0=
EXTT1=
EXTT2=
EXTT3=
EXTT4=
EXTT5=
EXTT6=
EXTT7=
EXTT8=
EXTT9=
EXTT10=
EXTT11=
EXTT12=
EXTT13=
EXTT14=
EXTT15=
EXTT16=
EXTT17=
EXTT18=
EXTT19=
PLAYORDER=
